<?xml version="1.0" encoding="UTF-8" standalone="no"?>
<svg width="169px" height="231px" viewBox="0 0 169 231" version="1.1" xmlns="http://www.w3.org/2000/svg" xmlns:xlink="http://www.w3.org/1999/xlink" xmlns:sketch="http://www.bohemiancoding.com/sketch/ns">
    <!-- Generator: Sketch 3.5.2 (25235) - http://www.bohemiancoding.com/sketch -->
    <title>Cannonball</title>
    <desc>Created with Sketch.</desc>
    <defs>
        <path id="path-1" d="M35,7.95044661 L35,103.526685"></path>
        <path id="path-2" d="M131,7.95044661 L131,103.526685"></path>
        <path id="path-3" d="M99,51.129981 L99,103.526685"></path>
        <path id="path-4" d="M99,0.435546875 L99,34.4255906"></path>
        <path id="path-5" d="M66,0.435546875 L66,54.8943507"></path>
        <path id="path-6" d="M66,75.6122235 L66,130.057188"></path>
    </defs>
    <g id="Page-1" stroke="none" stroke-width="1" fill="none" fill-rule="evenodd" sketch:type="MSPage">
        <g id="Collaborator-confirmation" sketch:type="MSArtboardGroup" transform="translate(-311.000000, -82.000000)">
            <g id="Cannonball" sketch:type="MSLayerGroup" transform="translate(311.000000, 84.000000)">
                <g id="Shape" opacity="0.38">
                    <use stroke="#6CCCEF" stroke-width="3" stroke-linecap="round" fill="#000000" fill-rule="evenodd" sketch:type="MSShapeGroup" xlink:href="#path-1"></use>
                    <use stroke="none" fill="none" xlink:href="#path-1"></use>
                </g>
                <g id="Shape" opacity="0.38">
                    <use stroke="#6CCCEF" stroke-width="3" stroke-linecap="round" fill="#000000" fill-rule="evenodd" sketch:type="MSShapeGroup" xlink:href="#path-2"></use>
                    <use stroke="none" fill="none" xlink:href="#path-2"></use>
                </g>
                <g id="Shape" opacity="0.38">
                    <use stroke="#6CCCEF" stroke-width="3" stroke-linecap="round" fill="#000000" fill-rule="evenodd" sketch:type="MSShapeGroup" xlink:href="#path-3"></use>
                    <use stroke="none" fill="none" xlink:href="#path-3"></use>
                </g>
                <g id="Shape" opacity="0.38">
                    <use stroke="#6CCCEF" stroke-width="3" stroke-linecap="round" fill="#000000" fill-rule="evenodd" sketch:type="MSShapeGroup" xlink:href="#path-4"></use>
                    <use stroke="none" fill="none" xlink:href="#path-4"></use>
                </g>
                <g id="Shape" opacity="0.38">
                    <use stroke="#6CCCEF" stroke-width="3" stroke-linecap="round" fill="#000000" fill-rule="evenodd" sketch:type="MSShapeGroup" xlink:href="#path-5"></use>
                    <use stroke="none" fill="none" xlink:href="#path-5"></use>
                </g>
                <g id="Shape" opacity="0.38">
                    <use stroke="#6CCCEF" stroke-width="3" stroke-linecap="round" fill="#000000" fill-rule="evenodd" sketch:type="MSShapeGroup" xlink:href="#path-6"></use>
                    <use stroke="none" fill="none" xlink:href="#path-6"></use>
                </g>
                <g id="nar" transform="translate(0.000000, 113.000000)" sketch:type="MSShapeGroup">
                    <path d="M120.474138,86.5865125 C120.922414,87.994605 122.693103,91.1907514 121.213793,98.4770713 C120.765517,100.734489 118.837931,104.668208 116.35,108.356069 C110.163793,117.497495 105.165517,116.022351 104.874138,104.981118 C104.739655,99.8628131 105.882759,93.6716763 110.275862,87.5699422 C110.253448,87.5922929 117.067241,78.4061657 120.474138,86.5865125 L120.474138,86.5865125 Z" id="Shape" fill="#1B75BB"></path>
                    <path d="M157.681034,57.2624277 C157.681034,33.905973 138.696552,14.9749518 115.296552,14.9749518 C102.543103,14.9749518 91.112069,20.5849711 83.3568966,29.4805395 C75.512069,37.4150289 53.6137931,58.4693642 42.4068966,58.2235067 C29.1827586,57.9105973 27.5913793,47.7857418 27.4793103,46.9140655 C39.5827586,38.4431599 34.4724138,20.0485549 34.4724138,20.0485549 C34.4724138,20.0485549 27.0310345,22.1271676 20.9344828,33.3472062 C16.6534483,26.6643545 7.28448276,22.3283237 0.156896552,22.9988439 C0.156896552,22.9988439 -2.66724138,42.5333333 19.1189655,48.0315992 C18.962069,72.2373796 30.7293103,85.8712909 42.0258621,92.4870906 C50.162069,97.2477842 59.037931,99.3040462 69.0568966,100.779191 C79.0758621,102.254335 95.9310345,103.952987 114.960345,101.807322 C138.158621,100.667437 157.681034,79.7472062 157.681034,57.2624277 L157.681034,57.2624277 Z" id="Shape" fill="#4197D1"></path>
                    <path d="M127.982759,32.2967245 L158.42069,7.95684008 L165.301724,2.48092486 L168.775862,-5.68434189e-14 L166.287931,2.92793834 L157.77069,12.0470135 L137.037931,33.9953757 L134.751724,36.3868979 L127.512069,34.8894027 L127.982759,32.2967245 Z" id="Shape" fill="#FFFFFF"></path>
                    <g id="Group" transform="translate(123.275862, 0.000000)" fill="#277EC1">
                        <path d="M24.2068966,16.6959538 C25.1706897,17.5229287 26.4931034,18.2828516 28.3086207,18.5957611 L34.4948276,12.0470135 C33.4637931,11.6447013 32.612069,11.1082852 31.9172414,10.5271676 L24.2068966,16.6959538 L24.2068966,16.6959538 Z" id="Shape"></path>
                        <path d="M15.2189655,23.8705202 C16.3396552,25.0327553 18.1551724,26.2396917 20.912069,26.4184971 L26.9189655,20.0485549 C25.1706897,19.5344894 23.8482759,18.6404624 22.9068966,17.7240848 L15.2189655,23.8705202 L15.2189655,23.8705202 Z" id="Shape"></path>
                        <path d="M45.5,0 L43.0344828,2.92793834 C42.6310345,2.81618497 42.4068966,2.65973025 42.0482759,2.48092486 L45.5,0 L45.5,0 Z" id="Shape"></path>
                        <path d="M6.29827586,31.022736 C7.4637931,32.4755299 9.72758621,34.2859345 13.6275862,34.1518304 L19.4551724,27.9830443 C16.8551724,27.4689788 15.0844828,26.1279383 13.9862069,24.8763006 L6.29827586,31.022736 L6.29827586,31.022736 Z" id="Shape"></path>
                        <path d="M40.6810345,3.53140655 L33.3741379,9.38728324 C34.0689655,9.87899807 34.8982759,10.3036609 35.9293103,10.5942197 L41.9137931,4.09017341 C41.4431034,3.88901734 41.0844828,3.77726397 40.6810345,3.53140655 L40.6810345,3.53140655 Z" id="Shape"></path>
                        <path d="M0.425862069,35.7163776 L0.425862069,35.7163776 C-1.03103448,39.3148362 2.73448276,42.555684 5.85,41.9298651 L6.36551724,41.8404624 L12.0362069,35.8504817 C8.42758621,35.4928709 6.25344828,33.5707129 5.06551724,32.0285164 L0.425862069,35.7163776 L0.425862069,35.7163776 Z" id="Shape"></path>
                    </g>
                    <path d="M107.07069,52.1441233 C106.958621,52.1441233 106.846552,52.1217726 106.734483,52.0770713 C106.241379,51.8982659 105.994828,51.339499 106.174138,50.8254335 C106.981034,48.7021195 108.863793,47.3387283 111.060345,47.2493256 C113.189655,47.1599229 115.117241,48.322158 116.058621,50.2890173 C116.282759,50.7583815 116.081034,51.339499 115.610345,51.5630058 C115.139655,51.7865125 114.556897,51.5853565 114.332759,51.1159923 C113.705172,49.8420039 112.517241,49.1044316 111.15,49.1714836 C110.02931,49.216185 108.617241,49.8643545 107.967241,51.5183044 C107.832759,51.8982659 107.451724,52.1441233 107.07069,52.1441233 L107.07069,52.1441233 Z" id="Shape" fill="#1B75BB"></path>
                    <path d="M136.343103,52.1441233 C136.231034,52.1441233 136.118966,52.1217726 136.006897,52.0770713 C135.513793,51.8982659 135.267241,51.339499 135.446552,50.8254335 C136.253448,48.7021195 138.136207,47.3387283 140.355172,47.2493256 C142.484483,47.1599229 144.412069,48.322158 145.353448,50.2890173 C145.577586,50.7583815 145.375862,51.339499 144.905172,51.5630058 C144.434483,51.7865125 143.851724,51.5853565 143.627586,51.1159923 C143,49.8420039 141.812069,49.1044316 140.444828,49.1714836 C139.324138,49.216185 137.912069,49.8643545 137.262069,51.5183044 C137.105172,51.8982659 136.724138,52.1441233 136.343103,52.1441233 L136.343103,52.1441233 Z" id="Shape" fill="#1B75BB"></path>
                    <path d="M119.017241,57.5529865 C120.451724,60.1009634 123.006897,61.7996146 125.943103,61.7996146 C128.87931,61.7996146 131.434483,60.1009634 132.868966,57.5529865 L119.017241,57.5529865 L119.017241,57.5529865 Z" id="Shape" fill="#F1F1F2"></path>
                    <path d="M92.5913793,90.4531792 C66.6362069,90.4531792 53.7482759,94.6774566 49.8706897,96.2420039 C55.787931,98.4770713 62.1310345,99.7734104 69.012069,100.779191 C79.0310345,102.254335 95.8862069,103.952987 114.915517,101.807322 C122.177586,101.449711 129.058621,99.1699422 135.110345,95.5044316 C128.991379,93.6493256 115.184483,90.4531792 92.5913793,90.4531792 L92.5913793,90.4531792 Z" id="Shape" fill="#6BCDF1"></path>
                    <path d="M92.7706897,89.0450867 C92.8155172,90.7213873 93.7344828,94.7668593 89.812069,102.254335 C88.6017241,104.578805 85.262069,108.266667 81.3844828,111.485164 C71.7465517,119.509056 66.7706897,116.312909 69.9310345,104.198844 C71.4103448,98.566474 74.6155172,92.1965318 81.3172414,86.9217726 C81.3172414,86.9217726 91.65,79.0543353 92.7706897,89.0450867 L92.7706897,89.0450867 Z" id="Shape" fill="#4197D1"></path>
                </g>
            </g>
        </g>
    </g>
</svg>