<?xml version="1.0" encoding="UTF-8"?>
<svg width="52px" height="69px" viewBox="0 0 52 69" version="1.1" xmlns="http://www.w3.org/2000/svg" xmlns:xlink="http://www.w3.org/1999/xlink">
    <!-- Generator: Sketch 45.1 (43504) - http://www.bohemiancoding.com/sketch -->
    <title>add-csv-icon</title>
    <desc>Created with Sketch.</desc>
    <defs>
        <path d="M35.4289322,0 L5,0 L5,0 C2.23857625,5.07265313e-16 -3.38176876e-16,2.23857625 0,5 L0,5 L0,64 C3.38176876e-16,66.7614237 2.23857625,69 5,69 L47,69 C49.7614237,69 52,66.7614237 52,64 L52,16.5710678 L35.4289322,-9.71445147e-16 Z" id="path-1"></path>
        <path d="M34,1 L34,14 L34,14 C34,16.209139 35.790861,18 38,18 L51,18" id="path-2"></path>
    </defs>
    <g id="Symbols" stroke="none" stroke-width="1" fill="none" fill-rule="evenodd">
        <g id="add-csv-icon">
            <g id="Combined-Shape">
                <use fill="#3C4B5E" fill-rule="evenodd" xlink:href="#path-1"></use>
                <path stroke="#3C4B5E" stroke-width="2" d="M35.0147186,1 L5,1 C2.790861,1 1,2.790861 1,5 L1,64 C1,66.209139 2.790861,68 5,68 L47,68 C49.209139,68 51,66.209139 51,64 L51,16.9852814 L35.0147186,1 Z"></path>
            </g>
            <g id="Rectangle-9">
                <use fill="#FFFFFF" fill-rule="evenodd" xlink:href="#path-2"></use>
                <path stroke="#3C4B5E" stroke-width="2" d="M35,3.41421356 L35,14 C35,15.6568542 36.3431458,17 38,17 L48.5857864,17 L35,3.41421356 Z"></path>
            </g>
            <path d="M18.502,52.09 C18.0306643,51.8659989 17.5523358,51.754 17.067,51.754 C16.4603303,51.754 15.9050025,51.8986652 15.401,52.188 C14.8969975,52.4773348 14.5003348,52.8763308 14.211,53.385 C13.9216652,53.8936692 13.777,54.4513303 13.777,55.058 C13.777,55.6646697 13.9216652,56.2223308 14.211,56.731 C14.5003348,57.2396692 14.8969975,57.6409985 15.401,57.935 C15.9050025,58.2290015 16.4603303,58.376 17.067,58.376 C17.533669,58.376 18.0026643,58.2733344 18.474,58.068 C18.9453357,57.8626656 19.3629982,57.5780018 19.727,57.214 L20.833,58.446 C20.3196641,58.9686693 19.7223368,59.3816652 19.041,59.685 C18.3596633,59.9883349 17.6690035,60.14 16.969,60.14 C16.0263286,60.14 15.1630039,59.9160022 14.379,59.468 C13.5949961,59.0199978 12.9790023,58.4110039 12.531,57.641 C12.0829978,56.8709961 11.859,56.019338 11.859,55.086 C11.859,54.152662 12.0876644,53.3033372 12.545,52.538 C13.0023356,51.7726628 13.6253294,51.1706689 14.414,50.732 C15.2026706,50.2933311 16.0776619,50.074 17.039,50.074 C17.7390035,50.074 18.4249967,50.2139986 19.097,50.494 C19.7690034,50.7740014 20.3429976,51.1613309 20.819,51.656 L19.727,53.028 C19.381665,52.6266647 18.9733357,52.3140011 18.502,52.09 Z M27.886,52.006 C27.358664,51.8379992 26.8943353,51.754 26.493,51.754 C26.0449978,51.754 25.6903346,51.8379992 25.429,52.006 C25.1676654,52.1740008 25.037,52.4073318 25.037,52.706 C25.037,52.976668 25.1279991,53.2029991 25.31,53.385 C25.4920009,53.5670009 25.7206653,53.7163327 25.996,53.833 C26.2713347,53.9496672 26.6469976,54.0779993 27.123,54.218 C27.78567,54.414001 28.3293312,54.609999 28.754,54.806 C29.1786688,55.002001 29.5403318,55.2913314 29.839,55.674 C30.1376682,56.0566686 30.287,56.5606635 30.287,57.186 C30.287,57.7833363 30.1260016,58.3036644 29.804,58.747 C29.4819984,59.1903356 29.0386695,59.5286655 28.474,59.762 C27.9093305,59.9953345 27.2630036,60.112 26.535,60.112 C25.7696628,60.112 25.0230036,59.9696681 24.295,59.685 C23.5669964,59.4003319 22.932336,59.0200024 22.391,58.544 L23.175,56.948 C23.6696691,57.4053356 24.2249969,57.7646654 24.841,58.026 C25.4570031,58.2873346 26.0309973,58.418 26.563,58.418 C27.0856693,58.418 27.4963318,58.3176677 27.795,58.117 C28.0936682,57.9163323 28.243,57.6433351 28.243,57.298 C28.243,57.0179986 28.1520009,56.7870009 27.97,56.605 C27.7879991,56.4229991 27.5570014,56.2760006 27.277,56.164 C26.9969986,56.0519994 26.6143358,55.9260007 26.129,55.786 C25.46633,55.589999 24.9250021,55.3986676 24.505,55.212 C24.0849979,55.0253324 23.7256682,54.7430019 23.427,54.365 C23.1283318,53.9869981 22.979,53.4900031 22.979,52.874 C22.979,52.3046638 23.1306651,51.8076688 23.434,51.383 C23.7373348,50.9583312 24.1666639,50.6293345 24.722,50.396 C25.2773361,50.1626655 25.9189964,50.046 26.647,50.046 C27.2816698,50.046 27.9093302,50.1393324 28.53,50.326 C29.1506698,50.5126676 29.7036642,50.7646651 30.189,51.082 L29.433,52.72 C28.9289975,52.4119985 28.413336,52.1740008 27.886,52.006 Z M31.789,50.2 L33.805,50.2 L36.689,57.914 L39.601,50.2 L41.533,50.2 L37.613,60 L35.667,60 L31.789,50.2 Z" id="CSV" fill="#FFFFFF"></path>
            <polygon id="+" fill="#FFFFFF" points="33.9225714 27.68 33.9225714 30.92 27.6585714 30.92 27.6585714 37.112 24.5985714 37.112 24.5985714 30.92 18.3705714 30.92 18.3705714 27.68 24.5985714 27.68 24.5985714 21.452 27.6585714 21.452 27.6585714 27.68"></polygon>
        </g>
    </g>
</svg>