<svg id="Layer_1" xmlns="http://www.w3.org/2000/svg" viewBox="0 0 345 126"><style>.st0{fill:#4C9DE6;}</style><circle class="st0" cx="62.7" cy="17.5" r="4.6"/><path class="st0" d="M99 31.9c-13 0-24 10.6-24 23.6v33c0 1.9 1.6 3.5 3.5 3.5s3.5-1.6 3.5-3.5v-33c0-9.2 7.9-16.6 17-16.6 1.9 0 3.5-1.6 3.5-3.5s-1.6-3.5-3.5-3.5zM23.5 31.9c-6.4 0-11.5 2.6-16.5 6.8V3.5C7 1.6 5.4 0 3.5 0S0 1.6 0 3.5v85C0 90.4 1.6 92 3.5 92S7 90.4 7 88.5v-33c0-9.2 7.4-16.6 16.5-16.6S40 46.3 40 55.3v33.2c0 1.9 1.6 3.5 3.5 3.5s3.5-1.6 3.5-3.5V55.3c0-12.9-10.5-23.4-23.5-23.4zM61.5 34c-1.9 0-3.5 1.6-3.5 3.5v51c0 1.9 1.6 3.5 3.5 3.5s3.5-1.6 3.5-3.5v-51c0-1.9-1.6-3.5-3.5-3.5zM341.5 0c-1.9 0-3.5 1.6-3.5 3.5v85c0 1.9 1.6 3.5 3.5 3.5s3.5-1.6 3.5-3.5v-85c0-1.9-1.6-3.5-3.5-3.5zM144.7 68c-1.8-.6-3.8.5-4.3 2.4-1.5 5.1-5 9.2-9.8 11.4-8.6 4.1-19.2.8-24-7.4-2.6-4.6-3.3-9.8-1.7-14.8 1.5-5 5.2-9.1 9.9-11.3 8.2-3.8 17.8-1.3 23 5.9l-17.5 8.2c-1.7.8-2.5 2.9-1.7 4.7.8 1.7 2.9 2.5 4.7 1.7l18.8-8.9c1.5-.7 2.6-2 3-3.5.5-1.6.2-3.3-.6-4.7-6.8-11.1-20.9-15.3-32.7-9.8-6.5 3.1-11.5 8.7-13.6 15.6-2.1 6.9-1.3 14.1 2.3 20.4 4.7 8.1 13.3 12.7 22.2 12.7 3.7 0 7.3-.8 10.8-2.4 6.6-3.1 11.4-8.8 13.5-15.8.6-1.9-.5-3.8-2.3-4.4zM185.7 36.7c-14.8 0-27.3 12-27.3 26.8 0 1-.3 2-.3 3v56c0 1.9 1.6 3.5 3.5 3.5s3.5-1.6 3.5-3.5V81.7c5 5.3 12.4 8.6 20.2 8.6 14.8 0 27.1-12 27.1-26.8s-11.9-26.8-26.7-26.8zm-.5 46.6c-10.1 0-18.2-7.6-20.2-17.4v-3.4c0-.3.5-.5.4-.7.9-10.1 9.6-18.1 20-18.1 10.9 0 19.7 8.9 19.7 19.8s-9 19.8-19.9 19.8zM246.1 90.4c-14.8 0-26.8-12-26.8-26.8s12-26.8 26.8-26.8 26.8 12 26.8 26.8-12 26.8-26.8 26.8zm0-46.6c-10.9 0-19.8 8.9-19.8 19.8s8.9 19.8 19.8 19.8 19.8-8.9 19.8-19.8-8.9-19.8-19.8-19.8zM304.1 90.4c-14.8 0-26.8-12-26.8-26.8s12-26.8 26.8-26.8 26.8 12 26.8 26.8-12 26.8-26.8 26.8zm0-46.6c-10.9 0-19.8 8.9-19.8 19.8s8.9 19.8 19.8 19.8 19.8-8.9 19.8-19.8-8.9-19.8-19.8-19.8z"/></svg>