<?xml version="1.0" encoding="utf-8"?>
<!-- Generator: Adobe Illustrator 19.0.1, SVG Export Plug-In . SVG Version: 6.00 Build 0)  -->
<svg version="1.1" id="Layer_1" xmlns="http://www.w3.org/2000/svg" xmlns:xlink="http://www.w3.org/1999/xlink" x="0px" y="0px"
	 viewBox="0 0 753 518.5" style="enable-background:new 0 0 753 518.5;" xml:space="preserve">
<style type="text/css">
	.st0{fill:#1B75BB;}
	.st1{fill:#4197D1;}
	.st2{fill:#FFFFFF;}
	.st3{fill:#277EC1;}
	.st4{fill:#F1F1F2;}
	.st5{fill:#6BCDF1;}
</style>
<g>
	<path class="st0" d="M537.5,387.4c2,6.3,9.9,20.6,3.3,53.2c-2,10.1-10.6,27.7-21.7,44.2c-27.6,40.9-49.9,34.3-51.2-15.1
		c-0.6-22.9,4.5-50.6,24.1-77.9C491.9,391.9,522.3,350.8,537.5,387.4z"/>
	<path class="st1" d="M703.5,256.2C703.5,151.7,618.8,67,514.4,67c-56.9,0-107.9,25.1-142.5,64.9c-35,35.5-132.7,129.7-182.7,128.6
		c-59-1.4-66.1-46.7-66.6-50.6c54-37.9,31.2-120.2,31.2-120.2s-33.2,9.3-60.4,59.5c-19.1-29.9-60.9-49.3-92.7-46.3
		c0,0-12.6,87.4,84.6,112c-0.7,108.3,51.8,169.3,102.2,198.9c36.3,21.3,75.9,30.5,120.6,37.1c44.7,6.6,119.9,14.2,204.8,4.6
		C616.4,450.4,703.5,356.8,703.5,256.2z"/>
	<polygon class="st2" points="571,144.5 706.8,35.6 737.5,11.1 753,0 741.9,13.1 703.9,53.9 611.4,152.1 601.2,162.8 568.9,156.1 	
		"/>
	<g>
		<g>
			<path class="st3" d="M658,74.7c4.3,3.7,10.2,7.1,18.3,8.5l27.6-29.3c-4.6-1.8-8.4-4.2-11.5-6.8L658,74.7z"/>
			<path class="st3" d="M617.9,106.8c5,5.2,13.1,10.6,25.4,11.4l26.8-28.5c-7.8-2.3-13.7-6.3-17.9-10.4L617.9,106.8z"/>
			<path class="st3" d="M753,0l-11,13.1c-1.8-0.5-2.8-1.2-4.4-2L753,0z"/>
			<path class="st3" d="M578.1,138.8c5.2,6.5,15.3,14.6,32.7,14l26-27.6c-11.6-2.3-19.5-8.3-24.4-13.9L578.1,138.8z"/>
			<path class="st3" d="M731.5,15.8L698.9,42c3.1,2.2,6.8,4.1,11.4,5.4L737,18.3C734.9,17.4,733.3,16.9,731.5,15.8z"/>
			<path class="st3" d="M551.9,159.8L551.9,159.8c-6.5,16.1,10.3,30.6,24.2,27.8l2.3-0.4l25.3-26.8c-16.1-1.6-25.8-10.2-31.1-17.1
				L551.9,159.8z"/>
		</g>
	</g>
	<g>
		<path class="st0" d="M477.7,233.3c-0.5,0-1-0.1-1.5-0.3c-2.2-0.8-3.3-3.3-2.5-5.6c3.6-9.5,12-15.6,21.8-16
			c9.5-0.4,18.1,4.8,22.3,13.6c1,2.1,0.1,4.7-2,5.7c-2.1,1-4.7,0.1-5.7-2c-2.8-5.7-8.1-9-14.2-8.7c-5,0.2-11.3,3.1-14.2,10.5
			C481.1,232.2,479.4,233.3,477.7,233.3z"/>
	</g>
	<g>
		<path class="st0" d="M608.3,233.3c-0.5,0-1-0.1-1.5-0.3c-2.2-0.8-3.3-3.3-2.5-5.6c3.6-9.5,12-15.6,21.9-16
			c9.5-0.4,18.1,4.8,22.3,13.6c1,2.1,0.1,4.7-2,5.7c-2.1,1-4.7,0.1-5.7-2c-2.8-5.7-8.1-9-14.2-8.7c-5,0.2-11.3,3.1-14.2,10.5
			C611.7,232.2,610,233.3,608.3,233.3z"/>
	</g>
	<path class="st4" d="M531,257.5c6.4,11.4,17.8,19,30.9,19s24.5-7.6,30.9-19H531z"/>
	<path class="st5" d="M413.1,404.7c-115.8,0-173.3,18.9-190.6,25.9c26.4,10,54.7,15.8,85.4,20.3c44.7,6.6,119.9,14.2,204.8,4.6
		c32.4-1.6,63.1-11.8,90.1-28.2C575.5,419,513.9,404.7,413.1,404.7z"/>
	<path class="st1" d="M413.9,398.4c0.2,7.5,4.3,25.6-13.2,59.1c-5.4,10.4-20.3,26.9-37.6,41.3c-43,35.9-65.2,21.6-51.1-32.6
		c6.6-25.2,20.9-53.7,50.8-77.3C362.8,388.9,408.9,353.7,413.9,398.4z"/>
</g>
</svg>
