<?xml version="1.0" encoding="UTF-8"?>
<svg width="25px" height="25px" viewBox="0 0 25 25" version="1.1" xmlns="http://www.w3.org/2000/svg" xmlns:xlink="http://www.w3.org/1999/xlink">
    <!-- Generator: Sketch 44 (41411) - http://www.bohemiancoding.com/sketch -->
    <title>semiapproved-circle</title>
    <desc>Created with Sketch.</desc>
    <defs></defs>
    <g id="Exports" stroke="none" stroke-width="1" fill="none" fill-rule="evenodd">
        <g id="semiapproved-circle">
            <g id="status-blob-/-triangle">
                <circle id="Oval-2" fill="#21AB43" fill-rule="evenodd" cx="12.5" cy="12.5" r="12.5"></circle>
                <path d="M11.2397675,14.2199819 L13.9038472,14.2199819 L13.9038472,14.2199819 C14.1799895,14.2199819 14.4038472,13.9961243 14.4038472,13.7199819 C14.4038472,13.6304989 14.3798331,13.5426555 14.3343104,13.4656172 L13.0022706,11.211396 L13.0022706,11.211396 C12.8617889,10.9736577 12.555181,10.8948157 12.3174427,11.0352974 C12.2448301,11.0782048 12.1842515,11.1387834 12.1413441,11.211396 L10.8093042,13.4656172 L10.8093042,13.4656172 C10.6688225,13.7033555 10.7476646,14.0099634 10.9854028,14.1504452 C11.0624411,14.1959678 11.1502845,14.2199819 11.2397675,14.2199819 Z M13.4327339,7.49142817 L18.0045412,15.2283329 C18.2855046,15.7038095 18.1278206,16.3170253 17.652344,16.5979887 C17.4982674,16.689034 17.3225807,16.7370622 17.1436147,16.7370622 L8,16.7370622 C7.44771525,16.7370622 7,16.289347 7,15.7370622 C7,15.5580962 7.04802821,15.3824095 7.13907347,15.2283329 L11.7108808,7.49142817 C11.9918442,7.01595157 12.6050601,6.85826751 13.0805366,7.13923095 C13.2257618,7.22504582 13.346919,7.346203 13.4327339,7.49142817 Z" id="Triangle" fill="#FFFFFF" fill-rule="nonzero"></path>
            </g>
        </g>
    </g>
</svg>