<?xml version="1.0" encoding="UTF-8"?>
<svg width="249px" height="219px" viewBox="0 0 249 219" version="1.1" xmlns="http://www.w3.org/2000/svg" xmlns:xlink="http://www.w3.org/1999/xlink">
    <!-- Generator: Sketch 44 (41411) - http://www.bohemiancoding.com/sketch -->
    <title>success-narwhal</title>
    <desc>Created with Sketch.</desc>
    <defs></defs>
    <g id="Exports" stroke="none" stroke-width="1" fill="none" fill-rule="evenodd">
        <g id="success-narwhal">
            <path d="M26.8910157,168.655476 C40.7757434,168.745217 52.0094652,179.91802 52.1013429,193.723611 C52.1932205,179.916898 63.4269423,168.746339 77.3116701,168.655476 C63.4269423,168.563491 52.1932205,157.392932 52.1013429,143.58622 C52.0094652,157.392932 40.7757434,168.563491 26.8910157,168.655476 Z" id="Shape" fill="#F6A623"></path>
            <path d="M197.200782,128.271852 C211.085509,128.361593 222.319231,139.534396 222.411109,153.339987 C222.502986,139.533274 233.736708,128.362715 247.621436,128.271852 C233.736708,128.179867 222.502986,117.009308 222.411109,103.202595 C222.319231,117.009308 211.085509,128.179867 197.200782,128.271852 Z" id="Shape" fill="#F6A623"></path>
            <path d="M0,86.8573982 C6.47953962,86.8992775 11.7219431,92.1132521 11.7648194,98.5558611 C11.8076956,92.1127286 17.0500991,86.899801 23.5296387,86.8573982 C17.0500991,86.8144719 11.8076956,81.6015443 11.7648194,75.1584118 C11.7219431,81.6015443 6.47953962,86.8144719 0,86.8573982 Z" id="Shape" fill="#F6A623"></path>
            <path d="M25.7705567,25.1905071 C29.7817003,25.2164324 33.0269977,28.444131 33.0535401,32.4324127 C33.0800825,28.4438069 36.3253799,25.2167565 40.3365235,25.1905071 C36.3253799,25.1639337 33.0800825,21.9368833 33.0535401,17.9482774 C33.0269977,21.9368833 29.7817003,25.1639337 25.7705567,25.1905071 Z" id="Shape" fill="#F6A623"></path>
            <path d="M124.370947,205.764736 C130.850487,205.806616 136.092891,211.02059 136.135767,217.463199 C136.178643,211.020067 141.421047,205.807139 147.900586,205.764736 C141.421047,205.72181 136.178643,200.508882 136.135767,194.06575 C136.092891,200.508882 130.850487,205.72181 124.370947,205.764736 Z" id="Shape" fill="#F6A623"></path>
            <path d="M173.671143,25.1601945 C180.150682,25.2020738 185.393086,30.4160484 185.435962,36.8586573 C185.478838,30.4155249 190.721242,25.2025973 197.200782,25.1601945 C190.721242,25.1172682 185.478838,19.9043405 185.435962,13.4612081 C185.393086,19.9043405 180.150682,25.1172682 173.671143,25.1601945 Z" id="Shape" fill="#F6A623"></path>
            <path d="M222.971338,75.6397248 C229.450878,75.6816041 234.693281,80.8955787 234.736158,87.3381877 C234.779034,80.8950552 240.021437,75.6821276 246.500977,75.6397248 C240.021437,75.5967985 234.779034,70.3838709 234.736158,63.9407384 C234.693281,70.3838709 229.450878,75.5967985 222.971338,75.6397248 Z" id="Shape" fill="#F6A623"></path>
            <path d="M77.3116701,25.0692565 C91.1963978,25.1589979 102.43012,36.3318006 102.521997,50.1373913 C102.613875,36.3306788 113.847597,25.1601197 127.732324,25.0692565 C113.847597,24.9772716 102.613875,13.8067124 102.521997,0 C102.43012,13.8067124 91.1963978,24.9772716 77.3116701,25.0692565 Z" id="Shape" fill="#F6A623"></path>
            <g id="nar" transform="translate(51.541113, 59.453669)" fill-rule="nonzero">
                <path d="M103.231943,74.5220952 C103.616062,75.733993 105.133332,78.4848086 103.865739,84.7558987 C103.48162,86.6987824 101.829909,90.0844016 99.6980497,93.2584196 C94.3972095,101.126137 90.1142842,99.8565298 89.864607,90.3537122 C89.7493713,85.94856 90.7288744,80.6200571 94.4932392,75.3685 C94.4740333,75.3877365 100.31264,67.4815462 103.231943,74.5220952 Z" id="Shape" fill="#1B75BB"></path>
                <path d="M135.113809,49.283843 C135.113809,29.1817291 118.846375,12.8884367 98.7953704,12.8884367 C87.8671889,12.8884367 78.072158,17.7167914 71.4269018,25.3729075 C64.7048217,32.2018553 45.9406155,50.3226126 36.337644,50.1110114 C25.0061377,49.8417007 23.6425157,41.1275786 23.546486,40.3773562 C33.9176952,33.086733 29.5387402,17.255116 29.5387402,17.255116 C29.5387402,17.255116 23.1623672,19.044108 17.9383507,28.7008173 C14.2700156,22.9491119 6.24193145,19.2172362 0.134441601,19.7943304 C0.134441601,19.7943304 -2.28550721,36.6070075 16.3826693,41.3391798 C16.2482277,62.1722797 26.3313478,73.9065281 36.011143,79.600524 C42.9829003,83.6978927 50.5884537,85.4676482 59.1735102,86.7372554 C67.7585667,88.0068626 82.2014357,89.4688345 98.5072813,87.6221331 C118.385432,86.641073 135.113809,68.6357346 135.113809,49.283843 Z" id="Shape" fill="#4197D1"></path>
                <polygon id="Shape" fill="#FFFFFF" points="109.665934 27.796703 135.747605 6.84818428 141.643829 2.13524847 144.62075 0 142.488891 2.51997792 135.190632 10.3684588 117.425135 29.258675 115.466129 31.3169775 109.262609 30.0281339"></polygon>
                <g id="Group" transform="translate(105.632686, 0.000000)" fill="#277EC1">
                    <path d="M20.7424184,14.3696451 C21.5682739,15.0813946 22.7014245,15.7354347 24.2571059,16.0047453 L29.5579462,10.3684588 C28.6744728,10.0222023 27.944647,9.56052693 27.3492627,9.06037864 L20.7424184,14.3696451 Z" id="Shape"></path>
                    <path d="M13.0408352,20.5445528 C14.0011324,21.5448494 15.5568138,22.5836189 17.9191448,22.7375107 L23.0663375,17.255116 C21.5682739,16.8126771 20.4351233,16.0432182 19.6284737,15.2545228 L13.0408352,20.5445528 Z" id="Shape"></path>
                    <path d="M38.9880641,0 L36.8754104,2.51997792 C36.5297035,2.42379556 36.337644,2.28914025 36.0303489,2.13524847 L38.9880641,0 Z" id="Shape"></path>
                    <path d="M5.39686996,26.7002241 C6.395579,27.9505948 8.33537923,29.5087491 11.6772133,29.3933303 L16.6707585,24.0840638 C14.4428691,23.6416249 12.9255996,22.4874366 11.9845084,21.4101941 L5.39686996,26.7002241 Z" id="Shape"></path>
                    <path d="M34.8587864,3.03936269 L28.597649,8.07931853 C29.1930333,8.50252093 29.9036531,8.86801391 30.7871265,9.11808806 L35.9151133,3.5202745 C35.5117885,3.34714625 35.2044934,3.25096389 34.8587864,3.03936269 Z" id="Shape"></path>
                    <path d="M0.364912916,30.7398834 L0.364912916,30.7398834 C-0.883473375,33.8369555 2.34312504,36.626244 5.0127511,36.0876228 L5.45448779,36.0106769 L10.3135914,30.8553022 C7.22143454,30.5475186 5.35845808,28.893182 4.3405431,27.5658654 L0.364912916,30.7398834 Z" id="Shape"></path>
                </g>
                <path d="M91.7467894,44.8786908 C91.6507597,44.8786908 91.5547299,44.8594543 91.4587002,44.8209814 C91.0361695,44.6670896 90.8249041,44.1861778 90.9785517,43.7437389 C91.6699656,41.916274 93.2832648,40.7428492 95.1654472,40.6659033 C96.9900118,40.5889574 98.6417229,41.589254 99.4483725,43.2820636 C99.6404319,43.6860295 99.4675784,44.1861778 99.0642536,44.3785425 C98.6609288,44.5709072 98.1615743,44.397779 97.9695149,43.9938131 C97.4317485,42.8973341 96.4138335,42.2625305 95.242271,42.3202399 C94.2819738,42.3587129 93.0719994,42.9165706 92.5150271,44.3400696 C92.3997914,44.6670896 92.0732904,44.8786908 91.7467894,44.8786908 Z" id="Shape" fill="#1B75BB"></path>
                <path d="M116.829751,44.8786908 C116.733721,44.8786908 116.637691,44.8594543 116.541662,44.8209814 C116.119131,44.6670896 115.907866,44.1861778 116.061513,43.7437389 C116.752927,41.916274 118.366226,40.7428492 120.267615,40.6659033 C122.092179,40.5889574 123.74389,41.589254 124.55054,43.2820636 C124.742599,43.6860295 124.569746,44.1861778 124.166421,44.3785425 C123.763096,44.5709072 123.263742,44.397779 123.071682,43.9938131 C122.533916,42.8973341 121.516001,42.2625305 120.344438,42.3202399 C119.384141,42.3587129 118.174167,42.9165706 117.617194,44.3400696 C117.482753,44.6670896 117.156252,44.8786908 116.829751,44.8786908 Z" id="Shape" fill="#1B75BB"></path>
                <path d="M101.983557,49.5339172 C103.212737,51.7268751 105.402215,53.188847 107.918193,53.188847 C110.434172,53.188847 112.623649,51.7268751 113.85283,49.5339172 L101.983557,49.5339172 Z" id="Shape" fill="#F1F1F2"></path>
                <path d="M79.3397502,77.850005 C57.0992683,77.850005 46.0558511,81.4856983 42.733223,82.8322514 C47.8035919,84.7558987 53.2388738,85.8716141 59.1350983,86.7372554 C67.7201548,88.0068626 82.1630238,89.4688345 98.4688694,87.6221331 C104.691595,87.3143496 110.587819,85.3522293 115.773424,82.1974478 C110.530202,80.6008206 98.6993407,77.850005 79.3397502,77.850005 Z" id="Shape" fill="#6BCDF1"></path>
                <path d="M79.4933978,76.6381072 C79.5318097,78.0808427 80.3192533,81.5626442 76.9582133,88.0068626 C75.9210924,90.0074557 73.0594069,93.1814737 69.7367788,95.9515258 C61.4782233,102.857419 57.214504,100.106604 59.9225419,89.6804357 C61.1901342,84.8328446 63.936584,79.3504499 69.6791609,74.8106423 C69.6791609,74.8106423 78.5331006,68.0394039 79.4933978,76.6381072 Z" id="Shape" fill="#4197D1"></path>
            </g>
        </g>
    </g>
</svg>