<?xml version="1.0" encoding="UTF-8"?>
<svg width="25px" height="25px" viewBox="0 0 25 25" version="1.1" xmlns="http://www.w3.org/2000/svg" xmlns:xlink="http://www.w3.org/1999/xlink">
    <!-- Generator: Sketch 44 (41411) - http://www.bohemiancoding.com/sketch -->
    <title>unapproved-circle</title>
    <desc>Created with Sketch.</desc>
    <defs></defs>
    <g id="Exports" stroke="none" stroke-width="1" fill="none" fill-rule="evenodd">
        <g id="unapproved-circle">
            <g id="status-blob-/-cross">
                <circle id="Oval-2" fill="#FF0000" cx="12.5" cy="12.5" r="12.5"></circle>
                <path d="M17.9274406,15.707124 C17.9758138,15.7748464 18,15.8377306 18,15.8957784 C18,15.9538261 17.9758138,16.0167103 17.9274406,16.0844327 L16.0844327,17.9274406 C16.0167103,17.9758138 15.9538261,18 15.8957784,18 C15.8377306,18 15.7748464,17.9758138 15.707124,17.9274406 L12.5,14.7203166 L9.29287599,17.9274406 C9.22515358,17.9758138 9.16226942,18 9.10422164,18 C9.04617385,18 8.9832897,17.9758138 8.91556728,17.9274406 L7.07255937,16.0844327 C7.02418621,16.0167103 7,15.9538261 7,15.8957784 C7,15.8377306 7.02418621,15.7748464 7.07255937,15.707124 L10.2796834,12.5 L7.07255937,9.29287599 C7.02418621,9.22515358 7,9.16226942 7,9.10422164 C7,9.04617385 7.02418621,8.9832897 7.07255937,8.91556728 L8.91556728,7.07255937 C8.9832897,7.02418621 9.04617385,7 9.10422164,7 C9.16226942,7 9.22515358,7.02418621 9.29287599,7.07255937 L12.5,10.2796834 L15.707124,7.07255937 C15.7748464,7.02418621 15.8377306,7 15.8957784,7 C15.9538261,7 16.0167103,7.02418621 16.0844327,7.07255937 L17.9274406,8.91556728 C17.9758138,8.9832897 18,9.04617385 18,9.10422164 C18,9.16226942 17.9758138,9.22515358 17.9274406,9.29287599 L14.7203166,12.5 L17.9274406,15.707124 Z" id="close" fill="#FFFFFF"></path>
            </g>
        </g>
    </g>
</svg>