<svg id="Layer_1" xmlns="http://www.w3.org/2000/svg" viewBox="0 0 3060 21"><style>.st0{fill:#287AC2;}</style><title>Rectangle</title><path class="st0" d="M2974.9 16c-31.4 0-51.6-16-84.9-16-36.7 0-53.7 16-85.1 16-31.4 0-51.6-16-84.9-16-36.7 0-53.7 16-85.1 16-31.4 0-51.6-16-84.9-16-36.7 0-53.7 16-85.1 16-31.4 0-51.6-16-84.9-16-36.7 0-53.7 16-85.1 16-31.4 0-51.6-16-84.9-16-36.7 0-53.7 16-85.1 16-31.4 0-51.6-16-84.9-16-36.7 0-53.7 16-85.1 16S1903.3 0 1870 0c-36.7 0-53.7 16-85.1 16S1733.3 0 1700 0c-36.7 0-53.7 16-85.1 16S1563.3 0 1530 0c-36.7 0-53.7 16-85.1 16S1393.3 0 1360 0c-36.7 0-53.7 16-85.1 16S1223.3 0 1190 0c-36.7 0-53.7 16-85.1 16S1053.3 0 1020 0c-36.7 0-53.7 16-85.1 16-31.4 0-51.6-16-84.9-16-36.7 0-53.7 16-85.1 16-31.4 0-51.6-16-84.9-16-36.7 0-53.7 16-85.1 16-31.4 0-51.6-16-84.9-16-36.7 0-53.7 16-85.1 16-31.4 0-51.6-16-84.9-16-36.7 0-53.7 16-85.1 16-31.4 0-51.6-16-84.9-16-36.7 0-53.7 16-85.1 16C53.5 16 33.3 0 0 0v21h3060V0c-36.7 0-53.7 16-85.1 16z"/></svg>